<svg width="443" height="931" viewBox="0 0 443 931" fill="none" xmlns="http://www.w3.org/2000/svg">
<g clip-path="url(#clip0_478_256)">
<rect width="443" height="931" fill="#164435"/>
<path d="M71.5765 13.6755C77.46 6.94447 80.4017 3.57898 84.3426 1.78949C88.2835 0 92.7534 0 101.693 0H423C432.428 0 437.142 0 440.071 2.92893C443 5.85786 443 10.5719 443 20V931H0V110.581C0 103.154 0 99.4411 1.27612 96.0421C2.55224 92.6431 4.99591 89.8474 9.88326 84.256L71.5765 13.6755Z" fill="#D4FF72"/>
<g filter="url(#filter0_f_478_256)">
<ellipse cx="467.189" cy="121.279" rx="372" ry="238.5" transform="rotate(-21.9535 467.189 121.279)" fill="#50D5A8"/>
</g>
<g filter="url(#filter1_f_478_256)">
<ellipse cx="405" cy="930.5" rx="372" ry="238.5" fill="#75DF9E"/>
</g>
</g>
<defs>
<filter id="filter0_f_478_256" x="-139.257" y="-390.047" width="1212.89" height="1022.65" filterUnits="userSpaceOnUse" color-interpolation-filters="sRGB">
<feFlood flood-opacity="0" result="BackgroundImageFix"/>
<feBlend mode="normal" in="SourceGraphic" in2="BackgroundImageFix" result="shape"/>
<feGaussianBlur stdDeviation="125" result="effect1_foregroundBlur_478_256"/>
</filter>
<filter id="filter1_f_478_256" x="-217" y="442" width="1244" height="977" filterUnits="userSpaceOnUse" color-interpolation-filters="sRGB">
<feFlood flood-opacity="0" result="BackgroundImageFix"/>
<feBlend mode="normal" in="SourceGraphic" in2="BackgroundImageFix" result="shape"/>
<feGaussianBlur stdDeviation="125" result="effect1_foregroundBlur_478_256"/>
</filter>
<clipPath id="clip0_478_256">
<rect width="443" height="931" fill="white"/>
</clipPath>
</defs>
</svg>
